<mxfile host="app.diagrams.net" modified="2023-03-29T18:57:04.127Z" agent="Mozilla/5.0 (Windows NT 10.0; Win64; x64) AppleWebKit/537.36 (KHTML, like Gecko) Chrome/111.0.0.0 Safari/537.36 Edg/111.0.1661.54" etag="XVqAVjgbBs8M-Aw8c1-e" version="21.1.2" type="github">
  <diagram name="PÃ¡gina-1" id="rkHG6nmuOjkpt8-TUzvK">
    <mxGraphModel dx="1588" dy="954" grid="1" gridSize="10" guides="1" tooltips="1" connect="1" arrows="1" fold="1" page="1" pageScale="1" pageWidth="827" pageHeight="1169" math="0" shadow="0">
      <root>
        <mxCell id="0" />
        <mxCell id="1" parent="0" />
        <mxCell id="QimY8xbkl2on-bAjsN7t-3" value="Pinacoteca" style="text;html=1;strokeColor=none;fillColor=none;align=center;verticalAlign=middle;whiteSpace=wrap;rounded=0;fontSize=40;" parent="1" vertex="1">
          <mxGeometry x="20" y="10" width="330" height="30" as="geometry" />
        </mxCell>
        <mxCell id="IfJ1QCMbeDYxTQooLl67-13" value="Tipos de Categoria" style="shape=rect;html=1;verticalAlign=top;fontStyle=1;whiteSpace=wrap;align=center;fillColor=#f5f5f5;fontColor=#333333;strokeColor=#666666;shadow=1;" parent="1" vertex="1">
          <mxGeometry x="163" y="240" width="577" height="470" as="geometry" />
        </mxCell>
        <mxCell id="IfJ1QCMbeDYxTQooLl67-19" value="Incluir tipo de categoria&amp;nbsp;" style="ellipse;whiteSpace=wrap;html=1;shadow=1;" parent="1" vertex="1">
          <mxGeometry x="260" y="290" width="90" height="70" as="geometry" />
        </mxCell>
        <mxCell id="IfJ1QCMbeDYxTQooLl67-20" value="Administrador&lt;br&gt;" style="shape=umlActor;html=1;verticalLabelPosition=bottom;verticalAlign=top;align=center;" parent="1" vertex="1">
          <mxGeometry x="50" y="500" width="30" height="55" as="geometry" />
        </mxCell>
        <mxCell id="IfJ1QCMbeDYxTQooLl67-21" value="" style="edgeStyle=none;html=1;endArrow=block;endFill=0;endSize=12;verticalAlign=bottom;rounded=0;entryX=0;entryY=0.5;entryDx=0;entryDy=0;exitX=0.744;exitY=0.472;exitDx=0;exitDy=0;exitPerimeter=0;" parent="1" source="IfJ1QCMbeDYxTQooLl67-20" target="IfJ1QCMbeDYxTQooLl67-19" edge="1">
          <mxGeometry width="160" relative="1" as="geometry">
            <mxPoint x="130" y="405" as="sourcePoint" />
            <mxPoint x="290" y="405" as="targetPoint" />
          </mxGeometry>
        </mxCell>
        <mxCell id="IfJ1QCMbeDYxTQooLl67-22" value="Alterar tipo de&lt;br&gt;categoria&amp;nbsp;" style="ellipse;whiteSpace=wrap;html=1;shadow=1;" parent="1" vertex="1">
          <mxGeometry x="370" y="340" width="96" height="70" as="geometry" />
        </mxCell>
        <mxCell id="IfJ1QCMbeDYxTQooLl67-23" value="Excluir tipo de &lt;br&gt;categoria" style="ellipse;whiteSpace=wrap;html=1;shadow=1;" parent="1" vertex="1">
          <mxGeometry x="490" y="420" width="140" height="70" as="geometry" />
        </mxCell>
        <mxCell id="IfJ1QCMbeDYxTQooLl67-24" value="" style="edgeStyle=none;html=1;endArrow=block;endFill=0;endSize=12;verticalAlign=bottom;rounded=0;entryX=0;entryY=0.714;entryDx=0;entryDy=0;entryPerimeter=0;exitX=0.5;exitY=0.5;exitDx=0;exitDy=0;exitPerimeter=0;" parent="1" source="IfJ1QCMbeDYxTQooLl67-20" target="IfJ1QCMbeDYxTQooLl67-22" edge="1">
          <mxGeometry width="160" relative="1" as="geometry">
            <mxPoint x="140" y="484.5" as="sourcePoint" />
            <mxPoint x="300" y="484.5" as="targetPoint" />
          </mxGeometry>
        </mxCell>
        <mxCell id="IfJ1QCMbeDYxTQooLl67-25" value="" style="edgeStyle=none;html=1;endArrow=block;endFill=0;endSize=12;verticalAlign=bottom;rounded=0;exitX=0.744;exitY=0.55;exitDx=0;exitDy=0;exitPerimeter=0;" parent="1" source="IfJ1QCMbeDYxTQooLl67-20" target="IfJ1QCMbeDYxTQooLl67-23" edge="1">
          <mxGeometry width="160" relative="1" as="geometry">
            <mxPoint x="150" y="554.5" as="sourcePoint" />
            <mxPoint x="370" y="515" as="targetPoint" />
          </mxGeometry>
        </mxCell>
        <mxCell id="IfJ1QCMbeDYxTQooLl67-27" value="Consultar tipo de categoria" style="ellipse;whiteSpace=wrap;html=1;shadow=1;" parent="1" vertex="1">
          <mxGeometry x="406" y="510" width="140" height="70" as="geometry" />
        </mxCell>
        <mxCell id="IfJ1QCMbeDYxTQooLl67-28" value="" style="edgeStyle=none;html=1;endArrow=block;endFill=0;endSize=12;verticalAlign=bottom;rounded=0;exitX=0.5;exitY=0.5;exitDx=0;exitDy=0;exitPerimeter=0;" parent="1" source="IfJ1QCMbeDYxTQooLl67-20" target="IfJ1QCMbeDYxTQooLl67-27" edge="1">
          <mxGeometry width="160" relative="1" as="geometry">
            <mxPoint x="90" y="495" as="sourcePoint" />
            <mxPoint x="410" y="510" as="targetPoint" />
          </mxGeometry>
        </mxCell>
        <mxCell id="IfJ1QCMbeDYxTQooLl67-29" value="Logar" style="ellipse;whiteSpace=wrap;html=1;shadow=1;" parent="1" vertex="1">
          <mxGeometry x="358" y="600" width="96" height="70" as="geometry" />
        </mxCell>
        <mxCell id="IfJ1QCMbeDYxTQooLl67-30" value="&amp;lt;&amp;lt;include&amp;gt;&amp;gt;" style="edgeStyle=none;html=1;endArrow=open;verticalAlign=bottom;dashed=1;labelBackgroundColor=none;rounded=0;exitX=0.5;exitY=0.5;exitDx=0;exitDy=0;exitPerimeter=0;entryX=0;entryY=0.5;entryDx=0;entryDy=0;" parent="1" source="IfJ1QCMbeDYxTQooLl67-20" target="IfJ1QCMbeDYxTQooLl67-29" edge="1">
          <mxGeometry x="0.1908" y="2" width="160" relative="1" as="geometry">
            <mxPoint x="140" y="645" as="sourcePoint" />
            <mxPoint x="300" y="645" as="targetPoint" />
            <mxPoint y="1" as="offset" />
          </mxGeometry>
        </mxCell>
      </root>
    </mxGraphModel>
  </diagram>
</mxfile>
